#!OML:ASF H:\LiuWeirdWalks\Patient Classification 1\Patient 1\Session 1\male.ASF
:FULLY-SPECIFIED
:DEGREES
407
root 0.414111 18.1592 -14.9148 9.91292 3.95278 13.0332
lowerback 12.7999 1.08458 8.73198
upperback 1.182 3.58412 13.1358
thorax -6.35045 1.74286 8.73054
lowerneck -16.3209 -0.242087 8.88244
upperneck 8.17643 1.14384 -28.8291
head 5.59276 -1.14272 -11.1883
rclavicle 1.11319e-014 1.90833e-014
rhumerus -23.4507 -35.4085 -42.041
rradius 28.2501
rwrist -3.01991
rhand -20.6652 1.77742
rfingers 7.12502
rthumb 5.69763 -28.126
lclavicle 1.11319e-014 1.90833e-014
lhumerus -16.2319 31.1613 13.7133
lradius 35.9258
lwrist 14.3687
lhand -20.2448 -1.33809
lfingers 7.12502
lthumb 6.10351 28.554
rfemur -27.4451 -0.414205 -0.681588
rtibia 35.8135
rfoot -8.77476 -15.8408
rtoes -5.89807
lfemur 6.85373 0.454616 -27.0277
ltibia 22.59
lfoot 16.9807 4.08223
ltoes -14.487
408
root 0.385112 18.1671 -14.8442 10.0228 3.56179 13.0043
lowerback 12.8735 1.10884 8.7263
upperback 1.18328 3.62175 13.0979
thorax -6.39123 1.7584 8.68237
lowerneck -16.2463 -0.156727 8.95155
upperneck 8.10056 1.22856 -28.7706
head 5.57303 -1.08567 -11.1647
rclavicle 2.70347e-014 -2.8625e-014
rhumerus -23.5505 -35.3967 -42.0045
rradius 28.302
rwrist -3.09129
rhand -20.5927 1.77767
rfingers 7.12502
rthumb 5.76764 -28.1238
lclavicle 2.70347e-014 -2.8625e-014
lhumerus -16.2995 31.0909 13.4836
lradius 36.0122
lwrist 14.4235
lhand -20.1869 -1.35029
lfingers 7.12502
lthumb 6.15934 28.5402
rfemur -27.5058 -0.148588 -0.540071
rtibia 35.8426
rfoot -8.9749 -15.84
rtoes -5.90847
lfemur 6.76931 0.548186 -27.0013
ltibia 22.664
lfoot 17.7494 4.1664
ltoes -14.0754
409
root 0.355374 18.1746 -14.7742 10.1259 3.17371 12.929
lowerback 12.9503 1.13139 8.72986
upperback 1.18809 3.65768 13.0518
thorax -6.4285 1.77257 8.61957
lowerneck -16.1587 -0.0847534 8.97352
upperneck 8.02433 1.29526 -28.6275
head 5.54443 -1.03313 -11.0986
rclavicle 4.29375e-014 7.31528e-014
rhumerus -23.6996 -35.4469 -41.8397
rradius 28.3618
rwrist -3.16436
rhand -20.539 1.77258
rfingers 7.12502
rthumb 5.81943 -28.1275
lclavicle 4.29375e-014 7.31528e-014
lhumerus -16.3639 31.0106 13.2664
lradius 36.1097
lwrist 14.5061
lhand -20.1202 -1.42003
lfingers 7.12502
lthumb 6.22373 28.4685
rfemur -27.5558 0.109795 -0.346571
rtibia 35.8544
rfoot -9.1812 -15.8068
rtoes -5.91694
lfemur 6.6713 0.636165 -26.925
ltibia 22.7768
lfoot 18.4705 4.24556
ltoes -13.7726
410
root 0.324685 18.1817 -14.7045 10.222 2.77306 12.8092
lowerback 13.0224 1.15624 8.73373
upperback 1.20423 3.69289 12.9953
thorax -6.44962 1.78616 8.54411
lowerneck -16.0617 -0.0177576 8.97214
upperneck 7.9151 1.34581 -28.4205
head 5.49902 -0.982957 -11.002
rclavicle -3.33958e-014 -2.54444e-014
rhumerus -23.8773 -35.5839 -41.5566
rradius 28.4118
rwrist -3.22129
rhand -20.492 1.77083
rfingers 7.12502
rthumb 5.86486 -28.128
lclavicle -3.33958e-014 -2.54444e-014
lhumerus -16.4324 30.9043 13.0587
lradius 36.2145
lwrist 14.5644
lhand -20.2028 -1.33976
lfingers 7.12502
lthumb 6.14404 28.5511
rfemur -27.5998 0.367788 -0.104335
rtibia 35.85
rfoot -9.40466 -15.7317
rtoes -5.90667
lfemur 6.55639 0.733385 -26.8028
ltibia 22.937
lfoot 19.1426 4.31621
ltoes -13.4664
411
root 0.293218 18.1882 -14.6348 10.3031 2.36528 12.6543
lowerback 13.0942 1.1822 8.73354
upperback 1.23613 3.72503 12.9254
thorax -6.45187 1.79812 8.45527
lowerneck -16.0005 0.0707027 9.01715
upperneck 7.78611 1.41311 -28.2199
head 5.45821 -0.92472 -10.9165
rclavicle 9.54166e-015 -5.725e-014
rhumerus -24.0895 -35.789 -41.1534
rradius 28.4574
rwrist -3.24887
rhand -20.4814 1.73541
rfingers 7.12502
rthumb 5.87507 -28.1631
lclavicle 9.54166e-015 -5.725e-014
lhumerus -16.4905 30.8083 12.867
lradius 36.3003
lwrist 14.5916
lhand -20.2845 -1.35842
lfingers 7.12502
lthumb 6.06511 28.5348
rfemur -27.6248 0.613119 0.17792
rtibia 35.8319
rfoot -9.64647 -15.6099
rtoes -5.88422
lfemur 6.43807 0.836744 -26.6437
ltibia 23.1463
lfoot 19.7579 4.38162
ltoes -13.1546
412
root 0.260689 18.1944 -14.5652 10.3728 1.95364 12.4622
lowerback 13.1559 1.20622 8.73143
upperback 1.28866 3.74812 12.8451
thorax -6.42413 1.80573 8.35657
lowerneck -15.946 0.165792 9.08716
upperneck 7.61388 1.47552 -28.0221
head 5.40498 -0.866301 -10.8361
rclavicle -1.74931e-014 1.04958e-013
rhumerus -24.3213 -35.9839 -40.6593
rradius 28.5251
rwrist -3.31586
rhand -20.4796 1.66685
rfingers 7.12502
rthumb 5.87681 -28.2317
lclavicle -1.74931e-014 1.04958e-013
lhumerus -16.5471 30.7043 12.7029
lradius 36.3473
lwrist 14.3315
lhand -20.5378 -1.35212
lfingers 7.12502
lthumb 5.82056 28.5479
rfemur -27.6321 0.85026 0.503179
rtibia 35.8003
rfoot -9.89545 -15.4482
rtoes -5.86233
lfemur 6.30877 0.943538 -26.4429
ltibia 23.41
lfoot 20.3191 4.43488
ltoes -12.8266
413
root 0.22747 18.2 -14.4956 10.435 1.54944 12.2595
lowerback 13.202 1.22081 8.70642
upperback 1.35501 3.74934 12.7497
thorax -6.37057 1.80337 8.25731
lowerneck -15.8563 0.270985 9.21063
upperneck 7.36414 1.52971 -27.863
head 5.32201 -0.805761 -10.7778
rclavicle -3.65764e-014 -3.49861e-014
rhumerus -24.566 -36.1418 -40.0841
rradius 28.615
rwrist -3.42471
rhand -20.503 1.55364
rfingers 7.12502
rthumb 5.85419 -28.3455
lclavicle -3.65764e-014 -3.49861e-014
lhumerus -16.6156 30.587 12.5523
lradius 36.3517
lwrist 13.923
lhand -20.9097 -1.33527
lfingers 7.12502
lthumb 5.46152 28.5744
rfemur -27.6171 1.04942 0.843698
rtibia 35.757
rfoot -10.1603 -15.2357
rtoes -5.84566
lfemur 6.16399 1.03577 -26.2299
ltibia 23.7356
lfoot 20.8 4.48312
ltoes -12.5363
414
root 0.193327 18.2056 -14.4266 10.4891 1.17126 12.0295
lowerback 13.2306 1.21748 8.68764
upperback 1.4364 3.72136 12.6405
thorax -6.28674 1.78669 8.14398
lowerneck -15.7582 0.399215 9.40403
upperneck 7.07338 1.60025 -27.7577
head 5.23089 -0.735468 -10.7516
rclavicle -1.90833e-014 -4.13472e-014
rhumerus -24.8088 -36.3029 -39.4334
rradius 28.7006
rwrist -3.49494
rhand -20.5403 1.42481
rfingers 7.12502
rthumb 5.81821 -28.4753
lclavicle -1.90833e-014 -4.13472e-014
lhumerus -16.7054 30.4729 12.4099
lradius 36.3246
lwrist 13.37
lhand -21.3596 -1.35558
lfingers 7.12502
lthumb 5.02716 28.5648
rfemur -27.574 1.21865 1.21914
rtibia 35.699
rfoot -10.4321 -14.9937
rtoes -5.83891
lfemur 5.99191 1.10325 -25.9815
ltibia 24.1365
lfoot 21.2146 4.50315
ltoes -12.142
415
root 0.158449 18.2111 -14.3586 10.5354 0.828804 11.7825
lowerback 13.257 1.19318 8.66917
upperback 1.51794 3.66494 12.5198
thorax -6.19852 1.75616 8.02297
lowerneck -15.6461 0.519341 9.5482
upperneck 6.79156 1.66856 -27.6072
head 5.13814 -0.665268 -10.6988
rclavicle -7.95139e-015 3.49861e-014
rhumerus -25.0631 -36.447 -38.6931
rradius 28.7856
rwrist -3.5481
rhand -20.5642 1.30083
rfingers 7.12502
rthumb 5.79507 -28.5999
lclavicle -7.95139e-015 3.49861e-014
lhumerus -16.8309 30.334 12.2797
lradius 36.2968
lwrist 12.8486
lhand -21.7705 -1.38792
lfingers 7.12502
lthumb 4.63038 28.5415
rfemur -27.4983 1.34308 1.61994
rtibia 35.6247
rfoot -10.6948 -14.7148
rtoes -5.87867
lfemur 5.78347 1.14198 -25.7056
ltibia 24.627
lfoot 21.5155 4.48214
ltoes -11.6765
416
root 0.123325 18.2164 -14.2916 10.5814 0.504747 11.5222
lowerback 13.2855 1.15795 8.64298
upperback 1.59673 3.59348 12.3885
thorax -6.11335 1.71848 7.89746
lowerneck -15.5593 0.64083 9.65868
upperneck 6.52932 1.74736 -27.4259
head 5.05708 -0.592482 -10.6289
rclavicle 1.90833e-014 -5.725e-014
rhumerus -25.3294 -36.6217 -37.8496
rradius 28.8542
rwrist -3.53179
rhand -20.5703 1.19622
rfingers 7.12502
rthumb 5.78926 -28.7047
lclavicle 1.90833e-014 -5.725e-014
lhumerus -16.9704 30.2343 12.1751
lradius 36.2379
lwrist 12.3439
lhand -22.154 -1.35151
lfingers 7.12502
lthumb 4.26009 28.5856
rfemur -27.4051 1.42718 2.03711
rtibia 35.5317
rfoot -10.9561 -14.3893
rtoes -5.93063
lfemur 5.5206 1.16371 -25.4155
ltibia 25.2212
lfoot 21.6599 4.41141
ltoes -11.156
